<svg width="19" height="19" viewBox="0 0 19 19" fill="none" xmlns="http://www.w3.org/2000/svg">
<path d="M7.61719 10.1113C7.97506 10.5897 8.43165 10.9856 8.95598 11.2721C9.48031 11.5585 10.0601 11.7289 10.6561 11.7716C11.252 11.8143 11.8502 11.7283 12.41 11.5195C12.9698 11.3106 13.4781 10.9839 13.9005 10.5613L16.4005 8.0613C17.1595 7.27546 17.5795 6.22295 17.57 5.13046C17.5605 4.03797 17.1223 2.99292 16.3498 2.22039C15.5772 1.44785 14.5322 1.00965 13.4397 1.00016C12.3472 0.990664 11.2947 1.41064 10.5089 2.16963L9.07552 3.59463" stroke="black" stroke-width="1.5" stroke-linecap="round" stroke-linejoin="round"/>
<path d="M10.953 8.44436C10.5951 7.96592 10.1385 7.57004 9.61417 7.28358C9.08985 6.99711 8.51004 6.82676 7.91409 6.78408C7.31814 6.7414 6.71998 6.82739 6.16018 7.03621C5.60038 7.24503 5.09204 7.5718 4.66963 7.99436L2.16963 10.4944C1.41064 11.2802 0.990664 12.3327 1.00016 13.4252C1.00965 14.5177 1.44785 15.5627 2.22039 16.3353C2.99292 17.1078 4.03797 17.546 5.13046 17.5555C6.22295 17.565 7.27546 17.145 8.0613 16.386L9.4863 14.961" stroke="black" stroke-width="1.5" stroke-linecap="round" stroke-linejoin="round"/>
</svg>
