<svg width="20" height="19" viewBox="0 0 20 19" fill="none" xmlns="http://www.w3.org/2000/svg">
<path d="M9.85417 18C14.7442 18 18.7083 14.1944 18.7083 9.5C18.7083 4.80558 14.7442 1 9.85417 1C4.96415 1 1 4.80558 1 9.5C1 14.1944 4.96415 18 9.85417 18Z" stroke="#76736F" stroke-width="1.5" stroke-linecap="round" stroke-linejoin="round"/>
<path d="M7.27734 6.9499C7.48551 6.38182 7.89638 5.90279 8.4372 5.59766C8.97801 5.29253 9.61387 5.181 10.2321 5.2828C10.8504 5.38461 11.4112 5.69319 11.8152 6.1539C12.2192 6.6146 12.4403 7.19769 12.4393 7.7999C12.4393 9.4999 9.78307 10.3499 9.78307 10.3499" stroke="#76736F" stroke-width="1.5" stroke-linecap="round" stroke-linejoin="round"/>
<path d="M9.85352 13.75H9.86185" stroke="#76736F" stroke-width="1.5" stroke-linecap="round" stroke-linejoin="round"/>
</svg>
